<?xml version="1.0" encoding="utf-8"?>
<!-- Generator: Adobe Illustrator 23.0.0, SVG Export Plug-In . SVG Version: 6.00 Build 0)  -->
<svg version="1.1"
	 id="svg3436" xmlns:cc="http://creativecommons.org/ns#" xmlns:dc="http://purl.org/dc/elements/1.1/" xmlns:inkscape="http://www.inkscape.org/namespaces/inkscape" xmlns:rdf="http://www.w3.org/1999/02/22-rdf-syntax-ns#" xmlns:sodipodi="http://sodipodi.sourceforge.net/DTD/sodipodi-0.dtd" xmlns:svg="http://www.w3.org/2000/svg"
	 xmlns="http://www.w3.org/2000/svg" xmlns:xlink="http://www.w3.org/1999/xlink" x="0px" y="0px" viewBox="0 0 120 60"
	 style="enable-background:new 0 0 120 60;" xml:space="preserve">
<style type="text/css">
	.st0{fill:#B70038;}
	.st1{fill:#FFFFFF;}
</style>
<rect class="st0" width="120" height="60"/>
<sodipodi:namedview  bordercolor="#666666" borderopacity="1" fit-margin-bottom="0" fit-margin-left="0" fit-margin-right="0" fit-margin-top="0" gridtolerance="10" guidetolerance="10" id="namedview3470" inkscape:current-layer="svg3436" inkscape:cx="106.5065" inkscape:cy="-9.2448214" inkscape:pageopacity="0" inkscape:pageshadow="2" inkscape:window-height="1001" inkscape:window-maximized="1" inkscape:window-width="1920" inkscape:window-x="-9" inkscape:window-y="-9" inkscape:zoom="4.1379311" objecttolerance="10" pagecolor="#ffffff" showgrid="false">
	</sodipodi:namedview>
<title  id="title3438">Zagat Logo</title>
<g id="g3440" transform="matrix(0.76860991,0,0,0.76860991,4.2757815,17.317936)">
	<g id="g3442">
		<path id="path3444" inkscape:connector-curvature="0" class="st1" d="M36.7,27.4l-2.3,4.7h2.3l1.4-2.8h11.3l1.3,2.8h2.4l-2.3-4.7
			H36.7"/>
		<path id="path3446" inkscape:connector-curvature="0" class="st1" d="M43.6,0.1l-16.1,32h2.4L43.8,4l13.9,28.1h2.5L44,0.1H43.6"/>
		<path id="path3448" inkscape:connector-curvature="0" class="st1" d="M1.9,7.5v2h10L0.1,31.7v0.4h24.7v-1.9H3.2L15.3,7.5H1.9"/>
		<path id="path3450" inkscape:connector-curvature="0" class="st1" d="M1.9,3.7h19.9L9.7,26.4h15.1v-2H13L24.9,2.1V1.7h-23L1.9,3.7
			"/>
		<path id="path3452" inkscape:connector-curvature="0" class="st1" d="M43.8,16.4l2.6,5.9h-5.3L43.8,16.4z M38.3,23.9h10.9
			l-5.4-11.1L38.3,23.9z"/>
		<path id="path3454" inkscape:connector-curvature="0" class="st1" d="M91.6,14.1h-18V16h16v0.7c0,7.9-5.6,14.2-13.5,14.2
			c-7.7,0-13.7-6.1-13.7-14s6.2-14,14.2-14c3.6,0,7.1,1.1,10,3.4l0.9-1.9C84.4,2.1,80.6,1,76.6,1c-9.2,0-16.4,6.9-16.4,15.9
			s7,15.9,15.9,16c9.3,0,15.5-7.2,15.5-16.5V14.1"/>
		<path id="path3456" inkscape:connector-curvature="0" class="st1" d="M135.3,7.5v24.6h2.1V9.5h7.5v-2H135.3"/>
		<path id="path3458" inkscape:connector-curvature="0" class="st1" d="M121.5,9.5h7.5v22.6h2.1V7.5h-9.6L121.5,9.5"/>
		<path id="path3460" inkscape:connector-curvature="0" class="st1" d="M121.5,1.7h23.4v2h-23.4L121.5,1.7z"/>
		<path id="path3462" inkscape:connector-curvature="0" class="st1" d="M76.6,9c2.7,0,5.2,1,7.2,2.9l0.9-1.9c-2.1-1.9-5-3-8.1-3
			c-5.6,0-9.9,4.3-9.9,9.9c0,5.7,4.1,10.1,9.4,10.1c5,0,8.5-3.1,8.8-7.8H73.6v1.9h8.9c-0.9,2.6-3.4,4-6.4,4c-4.1,0-7.3-3.6-7.3-8.2
			C68.8,12.4,72.2,9,76.6,9"/>
		<path id="path3464" inkscape:connector-curvature="0" class="st1" d="M107.5,0.1l-16.1,32h2.4L107.7,4l13.9,28.1h2.5l-16.2-32
			L107.5,0.1"/>
		<path id="path3466" inkscape:connector-curvature="0" class="st1" d="M100.6,27.4l-2.3,4.7h2.3l1.4-2.8h11.3l1.3,2.8h2.4l-2.3-4.7
			L100.6,27.4"/>
		<path id="path3468" inkscape:connector-curvature="0" class="st1" d="M107.7,16.4l2.6,5.9H105L107.7,16.4z M102.2,23.9h10.9
			l-5.4-11.1L102.2,23.9z"/>
	</g>
</g>
</svg>
